<svg xmlns="http://www.w3.org/2000/svg" viewBox="0 0 200 110" width="100%" height="100%">
  <!-- Slanted M Bar 1 with chamfered top-left and bottom-left -->
  <polygon points="12,100 0,22 10,10 32,10 44,88 34,100" fill="#0000FF" />
  
  <!-- Slanted M Bar 2 with chamfered corners -->
  <polygon points="46,100 34,22 44,10 66,10 78,88 68,100" fill="#0000FF" />

  <!-- Slanted M Bar 3 with chamfered corners -->
  <polygon points="80,100 68,22 78,10 100,10 112,88 102,100" fill="#0000FF" />

  <!-- S Top Bar with chamfered top-right and bottom-left -->
  <polygon points="135,10 188,10 198,20 198,36 112,36 122,24" fill="#0000FF" />

  <!-- S Middle Bar with chamfered top-right and bottom-left -->
  <polygon points="124,42 198,42 188,68 100,68 110,54" fill="#0000FF" />

  <!-- S Bottom Bar with chamfered top-left and bottom-right -->
  <polygon points="112,74 198,74 188,100 100,100 100,86" fill="#0000FF" />
</svg>
